<?xml version="1.0" encoding="utf-8"?><svg width="420" height="420" viewBox="0 0 420 420" xmlns="http://www.w3.org/2000/svg" xmlns:xlink="http://www.w3.org/1999/xlink"><svg width="42" height="42" viewBox="-5 -5 42 42" id="clock"><path fill="#444" d="M20.586 23.414L14 16.828V8h4v7.172l5.414 5.414zM16 0C7.163 0 0 7.163 0 16s7.163 16 16 16 16-7.163 16-16S24.837 0 16 0zm0 28C9.373 28 4 22.627 4 16S9.373 4 16 4s12 5.373 12 12-5.373 12-12 12z"/></svg><svg width="42" height="42" viewBox="-5 -5 42 42" id="envelop" x="42" y="42"><path fill="#444" d="M29 4H3C1.35 4 0 5.35 0 7v20c0 1.65 1.35 3 3 3h26c1.65 0 3-1.35 3-3V7c0-1.65-1.35-3-3-3zM12.46 17.2L4 23.79V8.112l8.46 9.086zM5.513 8H26.49L16 15.875 5.512 8zm7.278 9.553L16 21l3.21-3.447L25.79 26H6.21l6.58-8.447zm6.75-.354L28 8.11V23.79l-8.46-6.59z"/></svg><svg width="42" height="42" viewBox="-5 -5 42 42" id="facebook" x="84" y="84"><path fill="#444" d="M26.667 0H5.333A5.334 5.334 0 0 0 0 5.334v21.332A5.333 5.333 0 0 0 5.333 32H16V18h-4v-4h4v-3c0-2.76 2.24-5 5-5h5v4h-5a1 1 0 0 0-1 1v3h5.5l-1 4H20v14h6.667A5.334 5.334 0 0 0 32 26.666V5.334A5.333 5.333 0 0 0 26.667 0z"/></svg><svg width="42" height="42" viewBox="-5 -5 42 42" id="foursquare" x="126" y="126"><path fill="#444" d="M26.61 2.815A1.992 1.992 0 0 0 25 2H6a2 2 0 0 0-2 2v24a2 2 0 0 0 3.415 1.414L14.83 22H20a2 2 0 0 0 1.91-1.403l5-16c.19-.607.08-1.27-.298-1.78zM21.03 10H14a2 2 0 0 0 0 4h5.78l-1.25 4H14c-.53 0-1.04.21-1.414.586L8 23.172V6h14.28l-1.25 4z"/></svg><svg width="42" height="42" viewBox="-5 -5 42 42" id="google-plus" x="168" y="168"><path fill="#444" d="M17.47 2H9.1C5.344 2 1.81 4.844 1.81 8.138c0 3.366 2.56 6.083 6.38 6.083.265 0 .523-.003.775-.022-.248.475-.425 1.01-.425 1.564 0 .937.503 1.695 1.14 2.314-.48 0-.945.014-1.452.014C3.578 18.09 0 21.05 0 24.122c0 3.024 3.923 4.916 8.573 4.916 5.3 0 8.228-3.008 8.228-6.032 0-2.425-.713-3.877-2.926-5.442-.757-.536-2.204-1.84-2.204-2.604 0-.897.255-1.34 1.606-2.395C14.66 11.48 15.64 9.96 15.64 8.19c0-2.105-.937-4.158-2.698-4.836h2.655L17.47 2zm-2.924 20.483c.066.28.103.57.103.863 0 2.444-1.577 4.353-6.095 4.353-3.214 0-5.535-2.037-5.535-4.48 0-2.395 2.88-4.39 6.094-4.354.75.008 1.45.13 2.083.334 1.745 1.214 2.996 1.9 3.35 3.282zM9.4 13.368c-2.156-.065-4.206-2.413-4.58-5.246s1.075-5 3.232-4.937c2.157.065 4.207 2.338 4.58 5.17s-1.075 5.078-3.23 5.013zM26 8V2h-2v6h-6v2h6v6h2v-6h6V8z"/></svg><svg width="42" height="42" viewBox="-5 -5 42 42" id="instagram" x="210" y="210"><path fill="#444" d="M26.688 0H5.313C2.39 0 0 2.39 0 5.313v21.375C0 29.61 2.39 32 5.313 32h21.375C29.61 32 32 29.61 32 26.69V5.313C32 2.39 29.61 0 26.69 0zM10.244 14h11.513A6.1 6.1 0 0 1 16 22.094 6.1 6.1 0 0 1 9.906 16c0-.7.12-1.373.338-2zM28 14.002V26c0 1.1-.9 2-2 2H6c-1.1 0-2-.9-2-2V14h3.128a9.094 9.094 0 0 0-.222 2c0 5.014 4.08 9.094 9.094 9.094s9.094-4.08 9.094-9.094c0-.687-.077-1.356-.222-2l3.128.002zM28 7c0 .55-.45 1-1 1h-2c-.55 0-1-.45-1-1V5c0-.55.45-1 1-1h2c.55 0 1 .45 1 1v2z"/></svg><svg width="42" height="42" viewBox="-5 -5 42 42" id="map" x="252" y="252"><path fill="#444" d="M21 6L11 2 0 6v24l11-4 10 4 11-4V2L21 6zm-9-1.446l8 3.2v19.692l-8-3.2V4.554zM2 7.4l8-2.908v19.744l-8 2.91V7.4zm28 17.2l-8 2.908V7.764l8-2.91V24.6z"/></svg><svg width="42" height="42" viewBox="-5 -5 42 42" id="phone" x="294" y="294"><path fill="#444" d="M22 20c-2 2-2 4-4 4s-4-2-6-4-4-4-4-6 2-2 4-4-4-8-6-8-6 6-6 6c0 4 4.11 12.11 8 16s12 8 16 8c0 0 6-4 6-6s-6-8-8-6z"/></svg><svg width="42" height="42" viewBox="-5 -5 42 42" id="twitter" x="336" y="336"><path fill="#444" d="M32 6.076a13.142 13.142 0 0 1-3.77 1.034 6.598 6.598 0 0 0 2.886-3.632c-1.27.752-2.674 1.3-4.17 1.593A6.55 6.55 0 0 0 22.156 3a6.566 6.566 0 0 0-6.565 6.565c0 .515.06 1.016.17 1.496A18.65 18.65 0 0 1 2.23 4.2a6.564 6.564 0 0 0 2.032 8.765 6.563 6.563 0 0 1-2.975-.82v.083a6.568 6.568 0 0 0 5.265 6.437 6.566 6.566 0 0 1-2.964.112 6.574 6.574 0 0 0 6.133 4.56A13.186 13.186 0 0 1 0 26.054a18.573 18.573 0 0 0 10.063 2.95c12.076 0 18.68-10.004 18.68-18.68 0-.285-.007-.568-.02-.85A13.298 13.298 0 0 0 32 6.077z"/></svg><svg width="42" height="42" viewBox="-5 -5 42 42" id="yelp" x="378" y="378"><path fill="#444" d="M19.027 20.42c-.54.546-.083 1.536-.083 1.536l4.065 6.788s.666.895 1.244.895c.58 0 1.155-.48 1.155-.48l3.213-4.593s.324-.58.33-1.087c.013-.72-1.076-.92-1.076-.92l-7.61-2.443s-.745-.198-1.24.303zM18.642 17c.39.66 1.463.468 1.463.468l7.592-2.22s1.035-.42 1.182-.98c.143-.562-.173-1.24-.173-1.24L25.08 8.756s-.314-.54-.967-.595c-.72-.06-1.162.81-1.162.81l-4.29 6.75s-.377.67-.02 1.28zm-3.587-2.632c.894-.22 1.036-1.52 1.036-1.52L16.03 2.04S15.896.71 15.297.348c-.94-.57-1.218-.272-1.487-.233l-6.305 2.34s-.617.205-.94.72c-.458.73.467 1.798.467 1.798l6.55 8.93s.648.67 1.47.465zm-1.557 4.374c.023-.834-1-1.334-1-1.334L5.72 13.985s-1.004-.414-1.49-.126c-.374.22-.705.62-.738.97l-.44 5.433s-.067.94.177 1.37c.345.607 1.482.183 1.482.183l7.91-1.748c.306-.208.845-.226.875-1.33zm1.967 2.93c-.68-.348-1.49.374-1.49.374l-5.297 5.83s-.66.892-.493 1.44c.158.512.42.767.79.947l5.32 1.68s.645.133 1.133-.01c.693-.2.565-1.285.565-1.285l.12-7.894s-.027-.76-.648-1.082z"/></svg></svg>