<?xml version="1.0" encoding="utf-8"?><svg width="420" height="420" viewBox="0 0 420 420" xmlns="http://www.w3.org/2000/svg" xmlns:xlink="http://www.w3.org/1999/xlink"><svg width="42" height="42" viewBox="-5 -5 42 42" id="clock"><path fill="#444" d="M20.586 23.414L14 16.828V8h4v7.172l5.414 5.414zM16 0C7.163 0 0 7.163 0 16s7.163 16 16 16 16-7.163 16-16S24.837 0 16 0zm0 28C9.373 28 4 22.627 4 16S9.373 4 16 4s12 5.373 12 12-5.373 12-12 12z"/></svg><svg width="42" height="42" viewBox="-5 -5 42 42" id="envelop" x="42" y="42"><path fill="#444" d="M29 4H3C1.35 4 0 5.35 0 7v20c0 1.65 1.35 3 3 3h26c1.65 0 3-1.35 3-3V7c0-1.65-1.35-3-3-3zM12.461 17.199L4 23.789V8.113l8.461 9.086zM5.512 8h20.976L16 15.875 5.512 8zm7.278 9.553L16 21l3.21-3.447L25.79 26H6.211l6.58-8.447zm6.749-.354L28 8.113v15.676l-8.461-6.59z"/></svg><svg width="42" height="42" viewBox="-5 -5 42 42" id="facebook" x="84" y="84"><path fill="#444" d="M26.667 0H5.333A5.334 5.334 0 0 0 0 5.334v21.332A5.333 5.333 0 0 0 5.333 32H16V18h-4v-4h4v-3a5 5 0 0 1 5-5h5v4h-5a1 1 0 0 0-1 1v3h5.5l-1 4H20v14h6.667A5.334 5.334 0 0 0 32 26.666V5.334A5.333 5.333 0 0 0 26.667 0z"/></svg><svg width="42" height="42" viewBox="-5 -5 42 42" id="foursquare" x="126" y="126"><path fill="#444" d="M26.611 2.815A1.998 1.998 0 0 0 25 2H6a2 2 0 0 0-2 2v24a2 2 0 0 0 3.415 1.414L14.829 22h5.172a2 2 0 0 0 1.909-1.403l5-16a1.998 1.998 0 0 0-.298-1.781zM21.03 10H14a2 2 0 1 0 0 4h5.78l-1.25 4H14a2 2 0 0 0-1.414.586L8 23.172V6h14.28l-1.25 4z"/></svg><svg width="42" height="42" viewBox="-5 -5 42 42" id="google-plus" x="168" y="168"><path fill="#444" d="M17.471 2H9.098C5.344 2 1.811 4.844 1.811 8.138c0 3.366 2.559 6.083 6.378 6.083.266 0 .524-.005.776-.024-.248.475-.425 1.009-.425 1.564 0 .936.503 1.694 1.14 2.313-.481 0-.945.014-1.452.014C3.579 18.088 0 21.049 0 24.12c0 3.024 3.923 4.916 8.573 4.916 5.301 0 8.228-3.008 8.228-6.032 0-2.425-.715-3.877-2.928-5.442-.757-.536-2.204-1.839-2.204-2.604 0-.897.256-1.34 1.607-2.395 1.385-1.082 2.365-2.603 2.365-4.372 0-2.106-.938-4.159-2.699-4.837h2.655l1.874-1.355zm-2.925 20.483c.066.28.103.569.103.863 0 2.444-1.575 4.353-6.093 4.353-3.214 0-5.535-2.035-5.535-4.478 0-2.395 2.879-4.389 6.093-4.354.75.008 1.449.129 2.083.334 1.745 1.213 2.996 1.899 3.349 3.281zm-5.145-9.115c-2.157-.065-4.207-2.413-4.58-5.246s1.074-5.001 3.231-4.937c2.157.065 4.207 2.338 4.58 5.171s-1.075 5.077-3.231 5.012zM26 8V2h-2v6h-6v2h6v6h2v-6h6V8z"/></svg><svg width="42" height="42" viewBox="-5 -5 42 42" id="instagram" x="210" y="210"><path fill="#444" d="M26.688 0H5.313C2.391 0 0 2.391 0 5.313v21.375c0 2.922 2.391 5.313 5.313 5.313h21.375c2.922 0 5.313-2.391 5.313-5.313V5.313C32.001 2.391 29.61 0 26.688 0zM10.244 14h11.513A6.101 6.101 0 0 1 16 22.094 6.101 6.101 0 0 1 9.906 16c0-.7.119-1.373.338-2zM28 14.002V26c0 1.1-.9 2-2 2H6c-1.1 0-2-.9-2-2V14h3.128A9.094 9.094 0 0 0 16 25.094c5.015 0 9.094-4.079 9.094-9.094 0-.687-.077-1.356-.222-2l3.128.002zM28 7c0 .55-.45 1-1 1h-2c-.55 0-1-.45-1-1V5c0-.55.45-1 1-1h2c.55 0 1 .45 1 1v2z"/></svg><svg width="42" height="42" viewBox="-5 -5 42 42" id="map" x="252" y="252"><path fill="#444" d="M21 6L11 2 0 6v24l11-4 10 4 11-4V2L21 6zm-9-1.446l8 3.2v19.692l-8-3.2V4.554zM2 7.401l8-2.909v19.744l-8 2.909V7.401zm28 17.198l-8 2.909V7.764l8-2.909v19.744z"/></svg><svg width="42" height="42" viewBox="-5 -5 42 42" id="phone" x="294" y="294"><path fill="#444" d="M22 20c-2 2-2 4-4 4s-4-2-6-4-4-4-4-6 2-2 4-4-4-8-6-8-6 6-6 6c0 4 4.109 12.109 8 16s12 8 16 8c0 0 6-4 6-6s-6-8-8-6z"/></svg><svg width="42" height="42" viewBox="-5 -5 42 42" id="twitter" x="336" y="336"><path fill="#444" d="M32 6.076a13.14 13.14 0 0 1-3.771 1.034 6.592 6.592 0 0 0 2.887-3.632 13.151 13.151 0 0 1-4.169 1.593 6.557 6.557 0 0 0-4.792-2.073 6.565 6.565 0 0 0-6.565 6.565c0 .515.058 1.016.17 1.496a18.64 18.64 0 0 1-13.532-6.86A6.536 6.536 0 0 0 1.339 7.5a6.563 6.563 0 0 0 2.921 5.465 6.54 6.54 0 0 1-2.974-.821l-.001.083a6.568 6.568 0 0 0 5.266 6.437 6.578 6.578 0 0 1-2.965.112 6.571 6.571 0 0 0 6.133 4.559 13.172 13.172 0 0 1-8.154 2.81c-.53 0-1.052-.031-1.566-.092a18.579 18.579 0 0 0 10.064 2.95c12.076 0 18.679-10.004 18.679-18.68 0-.285-.006-.568-.019-.849a13.347 13.347 0 0 0 3.276-3.398z"/></svg><svg width="42" height="42" viewBox="-5 -5 42 42" id="yelp" x="378" y="378"><path fill="#444" d="M19.027 20.421c-.54.545-.083 1.535-.083 1.535l4.065 6.788s.668.895 1.246.895c.581 0 1.155-.477 1.155-.477l3.214-4.594s.324-.58.331-1.087c.012-.722-1.077-.92-1.077-.92l-7.609-2.444s-.746-.198-1.242.303zM18.642 17c.389.66 1.463.468 1.463.468l7.592-2.219s1.035-.421 1.182-.982c.145-.561-.171-1.238-.171-1.238L25.08 8.755s-.314-.54-.967-.595c-.719-.061-1.162.809-1.162.809l-4.29 6.75s-.379.672-.02 1.28zm-3.587-2.632c.894-.22 1.036-1.519 1.036-1.519L16.03 2.041S15.895.708 15.296.346c-.94-.57-1.218-.272-1.487-.233L7.506 2.455s-.617.204-.939.719c-.459.73.466 1.798.466 1.798l6.551 8.93s.647.669 1.47.465zm-1.557 4.374c.023-.834-1.001-1.334-1.001-1.334l-6.775-3.423s-1.004-.414-1.491-.126c-.373.221-.704.62-.737.973l-.441 5.432s-.066.941.178 1.369c.345.608 1.482.184 1.482.184l7.909-1.748c.307-.207.846-.225.876-1.328zm1.967 2.931c-.679-.349-1.491.373-1.491.373l-5.296 5.83s-.661.892-.493 1.439c.158.513.42.768.791.948l5.319 1.679s.645.134 1.133-.008c.693-.201.565-1.286.565-1.286l.12-7.894s-.027-.76-.648-1.082z"/></svg></svg>